<svg width="26" height="26" viewBox="0 0 26 26" fill="none" xmlns="http://www.w3.org/2000/svg">
<path fill-rule="evenodd" clip-rule="evenodd" d="M2.54301 10.4003C2.54345 10.2979 2.56413 10.1965 2.60384 10.1021C2.64355 10.0076 2.70152 9.92192 2.77442 9.84992C2.84732 9.77793 2.93372 9.72104 3.02867 9.68251C3.12361 9.64398 3.22522 9.62458 3.32768 9.62542L11.1412 9.68626C11.5728 9.68958 11.9429 10.0412 11.968 10.4716L12.0185 11.3376L14.624 7.19778C14.6778 7.11118 14.7485 7.03631 14.832 6.97763C14.9154 6.91896 15.0097 6.87769 15.1094 6.85628C15.2091 6.83487 15.3121 6.83376 15.4123 6.85302C15.5124 6.87229 15.6077 6.91152 15.6923 6.96839L22.2349 11.3013C22.4081 11.4159 22.5287 11.5945 22.5704 11.798C22.612 12.0014 22.5713 12.2131 22.4571 12.3866L18.183 18.8813C17.9455 19.2421 17.4558 19.35 17.0896 19.1225L12.0185 15.9716V18.5585C12.0185 18.9901 11.6686 19.3398 11.2379 19.3398H3.2852C3.18277 19.3399 3.08133 19.3198 2.98672 19.2805C2.89211 19.2413 2.80621 19.1837 2.73396 19.1111C2.66171 19.0385 2.60454 18.9523 2.56575 18.8575C2.52696 18.7627 2.50732 18.6611 2.50795 18.5587L2.54311 10.4003H2.54301ZM3.69809 11.054L3.67963 18.0668L10.9186 18.074L10.9152 15.1658L10.3337 14.7635C10.1571 14.6414 10.1018 14.3914 10.211 14.2059L10.9514 12.9485L10.9059 11.0199L3.69809 11.054ZM15.3931 8.26097L11.635 14.0998L17.5886 17.842L21.2617 12.1253L15.3931 8.26097Z" fill="white"/>
<path d="M13.5881 14.511C14.0196 14.511 14.3694 14.1612 14.3694 13.7297C14.3694 13.2983 14.0196 12.9485 13.5881 12.9485C13.1567 12.9485 12.8069 13.2983 12.8069 13.7297C12.8069 14.1612 13.1567 14.511 13.5881 14.511Z" fill="white"/>
<path d="M16.2249 14.0227C16.6563 14.0227 17.0061 13.6729 17.0061 13.2415C17.0061 12.81 16.6563 12.4602 16.2249 12.4602C15.7934 12.4602 15.4436 12.81 15.4436 13.2415C15.4436 13.6729 15.7934 14.0227 16.2249 14.0227Z" fill="white"/>
<path d="M18.9592 13.5344C19.3907 13.5344 19.7405 13.1846 19.7405 12.7532C19.7405 12.3217 19.3907 11.9719 18.9592 11.9719C18.5278 11.9719 18.178 12.3217 18.178 12.7532C18.178 13.1846 18.5278 13.5344 18.9592 13.5344Z" fill="white"/>
<path d="M4.99438 13.4368C5.42586 13.4368 5.77563 13.087 5.77563 12.6555C5.77563 12.224 5.42586 11.8743 4.99438 11.8743C4.56291 11.8743 4.21313 12.224 4.21313 12.6555C4.21313 13.087 4.56291 13.4368 4.99438 13.4368Z" fill="white"/>
<path d="M7.24048 15.4875C7.67195 15.4875 8.02173 15.1378 8.02173 14.7063C8.02173 14.2748 7.67195 13.925 7.24048 13.925C6.80901 13.925 6.45923 14.2748 6.45923 14.7063C6.45923 15.1378 6.80901 15.4875 7.24048 15.4875Z" fill="white"/>
<path d="M9.38892 13.3391C9.82039 13.3391 10.1702 12.9893 10.1702 12.5579C10.1702 12.1264 9.82039 11.7766 9.38892 11.7766C8.95744 11.7766 8.60767 12.1264 8.60767 12.5579C8.60767 12.9893 8.95744 13.3391 9.38892 13.3391Z" fill="white"/>
<path d="M5.09204 17.4407C5.52351 17.4407 5.87329 17.0909 5.87329 16.6594C5.87329 16.228 5.52351 15.8782 5.09204 15.8782C4.66057 15.8782 4.31079 16.228 4.31079 16.6594C4.31079 17.0909 4.66057 17.4407 5.09204 17.4407Z" fill="white"/>
<path d="M9.38892 17.4407C9.82039 17.4407 10.1702 17.0909 10.1702 16.6594C10.1702 16.228 9.82039 15.8782 9.38892 15.8782C8.95744 15.8782 8.60767 16.228 8.60767 16.6594C8.60767 17.0909 8.95744 17.4407 9.38892 17.4407Z" fill="white"/>
</svg>
