<svg width="20" height="20" viewBox="0 0 20 20" fill="none" xmlns="http://www.w3.org/2000/svg">
<path d="M0.200012 9.99997C1.1212 8.19299 2.52406 6.67588 4.25353 5.61631C5.98301 4.55674 7.97177 3.99597 10 3.99597C12.0283 3.99597 14.017 4.55674 15.7465 5.61631C17.476 6.67588 18.8788 8.19299 19.8 9.99997C18.8788 11.807 17.476 13.3241 15.7465 14.3836C14.017 15.4432 12.0283 16.004 10 16.004C7.97177 16.004 5.98301 15.4432 4.25353 14.3836C2.52406 13.3241 1.1212 11.807 0.200012 9.99997ZM10 14C11.0609 14 12.0783 13.5785 12.8284 12.8284C13.5786 12.0783 14 11.0608 14 9.99997C14 8.93911 13.5786 7.92169 12.8284 7.17155C12.0783 6.4214 11.0609 5.99997 10 5.99997C8.93915 5.99997 7.92173 6.4214 7.17159 7.17155C6.42144 7.92169 6.00001 8.93911 6.00001 9.99997C6.00001 11.0608 6.42144 12.0783 7.17159 12.8284C7.92173 13.5785 8.93915 14 10 14ZM10 12C9.46958 12 8.96087 11.7893 8.5858 11.4142C8.21073 11.0391 8.00001 10.5304 8.00001 9.99997C8.00001 9.46954 8.21073 8.96083 8.5858 8.58576C8.96087 8.21069 9.46958 7.99997 10 7.99997C10.5304 7.99997 11.0392 8.21069 11.4142 8.58576C11.7893 8.96083 12 9.46954 12 9.99997C12 10.5304 11.7893 11.0391 11.4142 11.4142C11.0392 11.7893 10.5304 12 10 12Z" fill="white"/>
</svg>
