<svg width="20" height="20" viewBox="0 0 20 20" fill="none" xmlns="http://www.w3.org/2000/svg">
<path d="M12.81 4.35997L11.04 6.13997C10.3616 5.95793 9.64725 5.95774 8.96876 6.13941C8.29027 6.32108 7.67158 6.67821 7.17491 7.17487C6.67825 7.67154 6.32112 8.29023 6.13945 8.96872C5.95778 9.64721 5.95797 10.3616 6.14001 11.04L3.38001 13.79C2.06001 12.79 0.960012 11.49 0.200012 9.99997C1.34093 7.76281 3.213 5.98339 5.50514 4.95738C7.79728 3.93137 10.3715 3.72056 12.8 4.35997H12.81ZM16.61 6.20997C17.94 7.20997 19.04 8.50997 19.81 9.99997C18.6683 12.2413 16.793 14.0236 14.4966 15.0499C12.2002 16.0762 9.62137 16.2844 7.19001 15.64L8.96001 13.86C9.6384 14.042 10.3528 14.0422 11.0313 13.8605C11.7098 13.6789 12.3284 13.3217 12.8251 12.8251C13.3218 12.3284 13.6789 11.7097 13.8606 11.0312C14.0422 10.3527 14.042 9.63836 13.86 8.95997L16.62 6.20997H16.61ZM16.36 2.21997L17.78 3.63997L3.64001 17.78L2.22001 16.36L16.36 2.21997Z" fill="white"/>
</svg>
