<svg width="17" height="21" viewBox="0 0 17 21" fill="none" xmlns="http://www.w3.org/2000/svg">
<path fill-rule="evenodd" clip-rule="evenodd" d="M4.31183 0.540959C4.01881 0.833984 3.85419 1.23141 3.85419 1.64581H2.29169C1.87729 1.64581 1.47986 1.81043 1.18683 2.10346C0.893807 2.39648 0.729187 2.79391 0.729187 3.20831V17.7916C0.729187 18.206 0.893807 18.6035 1.18683 18.8965C1.47986 19.1895 1.87729 19.3541 2.29169 19.3541H8.54169V18.3125H2.29169C2.15355 18.3125 2.02108 18.2576 1.9234 18.1599C1.82573 18.0623 1.77085 17.9298 1.77085 17.7916V3.20831C1.77085 3.07018 1.82573 2.9377 1.9234 2.84003C2.02108 2.74235 2.15355 2.68748 2.29169 2.68748H3.85419C3.85419 3.10188 4.01881 3.49931 4.31183 3.79233C4.60486 4.08536 5.00229 4.24998 5.41669 4.24998H9.58335C9.99775 4.24998 10.3952 4.08536 10.6882 3.79233C10.9812 3.49931 11.1459 3.10188 11.1459 2.68748H12.7084C12.8465 2.68748 12.979 2.74235 13.0766 2.84003C13.1743 2.9377 13.2292 3.07018 13.2292 3.20831V11.0208H14.2709V3.20831C14.2709 2.79391 14.1062 2.39648 13.8132 2.10346C13.5202 1.81043 13.1228 1.64581 12.7084 1.64581H11.1459C11.1459 1.23141 10.9812 0.833984 10.6882 0.540959C10.3952 0.247933 9.99775 0.083313 9.58335 0.083313H5.41669C5.00229 0.083313 4.60486 0.247933 4.31183 0.540959ZM5.0484 1.27753C5.14608 1.17985 5.27855 1.12498 5.41669 1.12498H9.58335C9.72149 1.12498 9.85396 1.17985 9.95164 1.27753C10.0493 1.3752 10.1042 1.50768 10.1042 1.64581V2.68748C10.1042 2.82561 10.0493 2.95809 9.95164 3.05576C9.85396 3.15344 9.72149 3.20831 9.58335 3.20831H5.41669C5.27855 3.20831 5.14608 3.15344 5.0484 3.05576C4.95073 2.95809 4.89585 2.82561 4.89585 2.68748V1.64581C4.89585 1.50768 4.95073 1.3752 5.0484 1.27753ZM6.97919 7.89581V6.33331H8.02085V7.89581H9.58335V8.93748H8.02085V10.5H6.97919V8.93748H5.41669V7.89581H6.97919Z" fill="white"/>
<path fill-rule="evenodd" clip-rule="evenodd" d="M9.58335 12.0625C9.44522 12.0625 9.31274 12.1174 9.21507 12.215C9.11739 12.3127 9.06252 12.4452 9.06252 12.5833V16.1193C9.06254 16.7194 9.21073 17.3103 9.49394 17.8395C9.77714 18.3686 10.1866 18.8197 10.686 19.1526L12.4193 20.3088C12.5049 20.3659 12.6055 20.3964 12.7084 20.3964C12.8112 20.3964 12.9118 20.3659 12.9974 20.3088L14.7307 19.1526C15.23 18.8197 15.6395 18.3687 15.9226 17.8397C16.2058 17.3106 16.3541 16.7199 16.3542 16.1198V12.5833C16.3542 12.4452 16.2993 12.3127 16.2016 12.215C16.104 12.1174 15.9715 12.0625 15.8334 12.0625H9.58335ZM12.5557 17.1182L14.6391 15.0349L13.9026 14.2984L12.1875 16.0135L11.5141 15.3401L10.7776 16.0765L11.8193 17.1182C11.917 17.2159 12.0494 17.2707 12.1875 17.2707C12.3256 17.2707 12.4581 17.2159 12.5557 17.1182Z" fill="#EC6767"/>
</svg>
