<svg width="18" height="20" viewBox="0 0 18 20" fill="none" xmlns="http://www.w3.org/2000/svg">
<path d="M4.8 0C4.16348 0 3.55303 0.247898 3.10294 0.68916C2.65286 1.13042 2.4 1.7289 2.4 2.35294V14.1176C2.4 14.7417 2.65286 15.3402 3.10294 15.7814C3.55303 16.2227 4.16348 16.4706 4.8 16.4706H6.2484C6.1375 16.086 6.06318 15.6922 6.0264 15.2941H4.8C4.48174 15.2941 4.17652 15.1702 3.95147 14.9495C3.72643 14.7289 3.6 14.4297 3.6 14.1176V2.35294C3.6 2.04092 3.72643 1.74168 3.95147 1.52105C4.17652 1.30042 4.48174 1.17647 4.8 1.17647H12C12.3183 1.17647 12.6235 1.30042 12.8485 1.52105C13.0736 1.74168 13.2 2.04092 13.2 2.35294V8.26118C13.6128 8.29804 14.0128 8.37059 14.4 8.47882V2.35294C14.4 1.7289 14.1471 1.13042 13.6971 0.68916C13.247 0.247898 12.6365 0 12 0H4.8ZM4.2 17.6471H6.72C6.9408 18.069 7.2036 18.4612 7.5084 18.8235H4.2C3.08609 18.8235 2.0178 18.3897 1.23015 17.6175C0.442499 16.8453 0 15.798 0 14.7059V4.70588C1.07021e-05 4.29287 0.110911 3.88713 0.321554 3.52945C0.532198 3.17176 0.835163 2.87474 1.2 2.66824V14.7059C1.2 15.4859 1.51607 16.234 2.07868 16.7856C2.64129 17.3372 3.40435 17.6471 4.2 17.6471ZM18 14.7059C18 16.11 17.4311 17.4565 16.4184 18.4494C15.4057 19.4422 14.0322 20 12.6 20C11.1678 20 9.79432 19.4422 8.78162 18.4494C7.76893 17.4565 7.2 16.11 7.2 14.7059C7.2 13.3018 7.76893 11.9552 8.78162 10.9624C9.79432 9.96954 11.1678 9.41177 12.6 9.41177C14.0322 9.41177 15.4057 9.96954 16.4184 10.9624C17.4311 11.9552 18 13.3018 18 14.7059ZM13.2 12.3529C13.2 12.1969 13.1368 12.0473 13.0243 11.937C12.9117 11.8267 12.7591 11.7647 12.6 11.7647C12.4409 11.7647 12.2883 11.8267 12.1757 11.937C12.0632 12.0473 12 12.1969 12 12.3529V14.1176H10.2C10.0409 14.1176 9.88826 14.1796 9.77574 14.2899C9.66321 14.4003 9.6 14.5499 9.6 14.7059C9.6 14.8619 9.66321 15.0115 9.77574 15.1218C9.88826 15.2321 10.0409 15.2941 10.2 15.2941H12V17.0588C12 17.2148 12.0632 17.3645 12.1757 17.4748C12.2883 17.5851 12.4409 17.6471 12.6 17.6471C12.7591 17.6471 12.9117 17.5851 13.0243 17.4748C13.1368 17.3645 13.2 17.2148 13.2 17.0588V15.2941H15C15.1591 15.2941 15.3117 15.2321 15.4243 15.1218C15.5368 15.0115 15.6 14.8619 15.6 14.7059C15.6 14.5499 15.5368 14.4003 15.4243 14.2899C15.3117 14.1796 15.1591 14.1176 15 14.1176H13.2V12.3529Z" fill="#FFF3F3"/>
</svg>
