<svg width="17" height="12" viewBox="0 0 17 12" fill="none" xmlns="http://www.w3.org/2000/svg">
<path d="M10.8333 5H16.6667V6.66667H10.8333V5ZM11.6667 8.33333H16.6667V10H11.6667V8.33333ZM10 1.66667H16.6667V3.33333H10V1.66667ZM1.66667 11.6667H10V10.8333C10 8.53583 8.13083 6.66667 5.83333 6.66667H4.16667C1.86917 6.66667 0 8.53583 0 10.8333V11.6667H1.66667ZM5 5.83333C6.6625 5.83333 7.91667 4.57917 7.91667 2.91667C7.91667 1.25417 6.6625 0 5 0C3.3375 0 2.08333 1.25417 2.08333 2.91667C2.08333 4.57917 3.3375 5.83333 5 5.83333Z" fill="white"/>
</svg>
