<svg width="17" height="21" viewBox="0 0 17 21" fill="none" xmlns="http://www.w3.org/2000/svg">
<path fill-rule="evenodd" clip-rule="evenodd" d="M4.31183 0.54102C4.01881 0.834045 3.85419 1.23147 3.85419 1.64587H2.29169C1.87729 1.64587 1.47986 1.81049 1.18683 2.10352C0.893807 2.39655 0.729187 2.79397 0.729187 3.20837V17.7917C0.729187 18.2061 0.893807 18.6035 1.18683 18.8966C1.47986 19.1896 1.87729 19.3542 2.29169 19.3542H8.54169V18.3125H2.29169C2.15355 18.3125 2.02108 18.2577 1.9234 18.16C1.82573 18.0623 1.77085 17.9298 1.77085 17.7917V3.20837C1.77085 3.07024 1.82573 2.93776 1.9234 2.84009C2.02108 2.74241 2.15355 2.68754 2.29169 2.68754H3.85419C3.85419 3.10194 4.01881 3.49937 4.31183 3.7924C4.60486 4.08542 5.00229 4.25004 5.41669 4.25004H9.58335C9.99775 4.25004 10.3952 4.08542 10.6882 3.7924C10.9812 3.49937 11.1459 3.10194 11.1459 2.68754H12.7084C12.8465 2.68754 12.979 2.74241 13.0766 2.84009C13.1743 2.93776 13.2292 3.07024 13.2292 3.20837V11.0209H14.2709V3.20837C14.2709 2.79397 14.1062 2.39655 13.8132 2.10352C13.5202 1.81049 13.1228 1.64587 12.7084 1.64587H11.1459C11.1459 1.23147 10.9812 0.834045 10.6882 0.54102C10.3952 0.247994 9.99775 0.083374 9.58335 0.083374H5.41669C5.00229 0.083374 4.60486 0.247994 4.31183 0.54102ZM5.0484 1.27759C5.14608 1.17991 5.27855 1.12504 5.41669 1.12504H9.58335C9.72149 1.12504 9.85396 1.17991 9.95164 1.27759C10.0493 1.37526 10.1042 1.50774 10.1042 1.64587V2.68754C10.1042 2.82567 10.0493 2.95815 9.95164 3.05583C9.85396 3.1535 9.72149 3.20837 9.58335 3.20837H5.41669C5.27855 3.20837 5.14608 3.1535 5.0484 3.05583C4.95073 2.95815 4.89585 2.82567 4.89585 2.68754V1.64587C4.89585 1.50774 4.95073 1.37526 5.0484 1.27759ZM6.97919 7.89587V6.33337H8.02085V7.89587H9.58335V8.93754H8.02085V10.5H6.97919V8.93754H5.41669V7.89587H6.97919Z" fill="white"/>
<path fill-rule="evenodd" clip-rule="evenodd" d="M9.58335 12.0625C9.44522 12.0625 9.31274 12.1174 9.21507 12.2151C9.11739 12.3128 9.06252 12.4452 9.06252 12.5834V16.1193C9.06254 16.7195 9.21073 17.3104 9.49394 17.8395C9.77714 18.3687 10.1866 18.8197 10.686 19.1526L12.4193 20.3089C12.5049 20.366 12.6055 20.3965 12.7084 20.3965C12.8112 20.3965 12.9118 20.366 12.9974 20.3089L14.7307 19.1526C15.23 18.8198 15.6395 18.3688 15.9226 17.8397C16.2058 17.3107 16.3541 16.7199 16.3542 16.1198V12.5834C16.3542 12.4452 16.2993 12.3128 16.2016 12.2151C16.104 12.1174 15.9715 12.0625 15.8334 12.0625H9.58335ZM12.5557 17.1183L14.6391 15.0349L13.9026 14.2985L12.1875 16.0136L11.5141 15.3401L10.7776 16.0766L11.8193 17.1183C11.917 17.2159 12.0494 17.2708 12.1875 17.2708C12.3256 17.2708 12.4581 17.2159 12.5557 17.1183Z" fill="#7CE180"/>
</svg>
